<svg width="35" height="35" viewBox="0 0 35 35" fill="none" xmlns="http://www.w3.org/2000/svg">
<circle cx="17.5" cy="17.5" r="17.5" fill="#222222"/>
<path d="M10.2865 23.3301C9.90449 23.7121 9.90449 24.3314 10.2865 24.7135C10.6686 25.0955 11.288 25.0955 11.67 24.7135L10.2865 23.3301ZM18.1917 18.1917C18.5738 17.8097 18.5738 17.1904 18.1917 16.8083C17.8097 16.4263 17.1904 16.4263 16.8083 16.8083L18.1917 18.1917ZM16.8083 16.8083C16.4263 17.1904 16.4263 17.8097 16.8083 18.1917C17.1904 18.5738 17.8097 18.5738 18.1917 18.1917L16.8083 16.8083ZM24.7135 11.67C25.0955 11.288 25.0955 10.6686 24.7135 10.2865C24.3314 9.90449 23.7121 9.90449 23.3301 10.2865L24.7135 11.67ZM18.1917 16.8083C17.8097 16.4263 17.1904 16.4263 16.8083 16.8083C16.4263 17.1904 16.4263 17.8097 16.8083 18.1917L18.1917 16.8083ZM23.3301 24.7135C23.7121 25.0955 24.3314 25.0955 24.7135 24.7135C25.0955 24.3314 25.0955 23.7121 24.7135 23.3301L23.3301 24.7135ZM16.8083 18.1917C17.1904 18.5738 17.8097 18.5738 18.1917 18.1917C18.5738 17.8097 18.5738 17.1904 18.1917 16.8083L16.8083 18.1917ZM11.67 10.2865C11.288 9.90449 10.6686 9.90449 10.2865 10.2865C9.90449 10.6686 9.90449 11.288 10.2865 11.67L11.67 10.2865ZM11.67 24.7135L18.1917 18.1917L16.8083 16.8083L10.2865 23.3301L11.67 24.7135ZM18.1917 18.1917L24.7135 11.67L23.3301 10.2865L16.8083 16.8083L18.1917 18.1917ZM16.8083 18.1917L23.3301 24.7135L24.7135 23.3301L18.1917 16.8083L16.8083 18.1917ZM18.1917 16.8083L11.67 10.2865L10.2865 11.67L16.8083 18.1917L18.1917 16.8083Z" fill="white"/>
</svg>
